<?xml version="1.0" encoding="UTF-8" standalone="no"?>
<svg
   xmlns:dc="http://purl.org/dc/elements/1.1/"
   xmlns:cc="http://creativecommons.org/ns#"
   xmlns:rdf="http://www.w3.org/1999/02/22-rdf-syntax-ns#"
   xmlns:svg="http://www.w3.org/2000/svg"
   xmlns="http://www.w3.org/2000/svg"
   xmlns:sodipodi="http://sodipodi.sourceforge.net/DTD/sodipodi-0.dtd"
   xmlns:inkscape="http://www.inkscape.org/namespaces/inkscape"
   width="247.75591mm"
   height="50.358349mm"
   viewBox="0 0 247.75591 50.35835"
   version="1.1"
   id="svg7981"
   inkscape:version="1.0.2 (e86c870879, 2021-01-15, custom)"
   sodipodi:docname="cohorts.svg">
  <defs
     id="defs7975">
    <inkscape:path-effect
       effect="bspline"
       id="path-effect29242"
       is_visible="true"
       lpeversion="1"
       weight="33.333333"
       steps="2"
       helper_size="0"
       apply_no_weight="true"
       apply_with_weight="true"
       only_selected="false" />
    <rect
       x="218.00613"
       y="250.58134"
       width="25.424278"
       height="4.1658225"
       id="rect30013-3-6-9" />
    <rect
       x="218.00613"
       y="250.58134"
       width="25.424278"
       height="4.1658225"
       id="rect7086" />
    <inkscape:path-effect
       effect="bspline"
       id="path-effect108437"
       is_visible="true"
       lpeversion="1"
       weight="33.333333"
       steps="2"
       helper_size="0"
       apply_no_weight="true"
       apply_with_weight="true"
       only_selected="false" />
    <rect
       x="218.00613"
       y="250.58134"
       width="25.424278"
       height="4.1658225"
       id="rect30013-3-6-9-2" />
    <rect
       x="218.00613"
       y="250.58134"
       width="25.424278"
       height="4.1658225"
       id="rect7090" />
    <inkscape:path-effect
       effect="bspline"
       id="path-effect108439"
       is_visible="true"
       lpeversion="1"
       weight="33.333333"
       steps="2"
       helper_size="0"
       apply_no_weight="true"
       apply_with_weight="true"
       only_selected="false" />
    <rect
       x="218.00613"
       y="250.58134"
       width="25.424278"
       height="4.1658225"
       id="rect30013-3-6-9-5" />
    <rect
       x="218.00613"
       y="250.58134"
       width="25.424278"
       height="4.1658225"
       id="rect7094" />
    <inkscape:path-effect
       effect="bspline"
       id="path-effect31258"
       is_visible="true"
       lpeversion="1"
       weight="33.333333"
       steps="2"
       helper_size="0"
       apply_no_weight="true"
       apply_with_weight="true"
       only_selected="false" />
    <rect
       x="218.00613"
       y="250.58134"
       width="25.424278"
       height="4.1658225"
       id="rect30013-3-6-9-00" />
    <rect
       x="218.00613"
       y="250.58134"
       width="25.424278"
       height="4.1658225"
       id="rect7098" />
  </defs>
  <sodipodi:namedview
     id="base"
     pagecolor="#ffffff"
     bordercolor="#666666"
     borderopacity="1.0"
     inkscape:pageopacity="1"
     inkscape:pageshadow="2"
     inkscape:zoom="1.1584113"
     inkscape:cx="608.78977"
     inkscape:cy="74.224187"
     inkscape:document-units="mm"
     inkscape:current-layer="layer1"
     inkscape:document-rotation="0"
     showgrid="false"
     lock-margins="true"
     fit-margin-top="5"
     fit-margin-left="5"
     fit-margin-right="5"
     fit-margin-bottom="5"
     inkscape:window-width="2560"
     inkscape:window-height="1402"
     inkscape:window-x="1440"
     inkscape:window-y="186"
     inkscape:window-maximized="1" />
  <metadata
     id="metadata7978">
    <rdf:RDF>
      <cc:Work
         rdf:about="">
        <dc:format>image/svg+xml</dc:format>
        <dc:type
           rdf:resource="http://purl.org/dc/dcmitype/StillImage" />
        <dc:title></dc:title>
      </cc:Work>
    </rdf:RDF>
  </metadata>
  <g
     inkscape:label="Layer 1"
     inkscape:groupmode="layer"
     id="layer1"
     transform="translate(-6.0991449,-191.08228)">
    <g
       id="g7486"
       transform="translate(-0.43656211,90.380653)">
      <g
         id="g31400"
         transform="matrix(2.5680092,0,0,2.5680092,-254.74184,-208.91274)">
        <g
           id="g29250"
           transform="translate(-5.9000117,22.174051)">
          <path
             style="fill:#f8f8f7;fill-opacity:1;stroke:none;stroke-width:0.264583px;stroke-linecap:butt;stroke-linejoin:miter;stroke-opacity:1"
             d="m 161.19131,104.94199 c 1.12733,-1.14659 2.71414,-2.04627 4.3566,-2.21963 1.64246,-0.17337 3.34028,0.3794 4.45904,1.44884 1.11876,1.06943 1.65862,2.65526 1.48636,4.06371 -0.17226,1.40845 -1.05646,2.63971 -2.16944,3.58113 -1.11298,0.94143 -2.48585,1.60815 -4.08441,1.84748 -1.59857,0.23932 -3.4563,0.057 -4.57936,-0.80176 -1.12305,-0.85871 -1.52963,-2.43168 -1.39674,-3.90577 0.1329,-1.47408 0.80061,-2.8674 1.92795,-4.014 z"
             id="path29240"
             inkscape:path-effect="#path-effect29242"
             inkscape:original-d="m 160.73175,104.69512 c 1.58707,-0.89941 3.17388,-1.79908 4.76042,-2.69902 1.69815,0.55306 3.39597,1.10582 5.09356,1.65833 0.54014,1.58615 1.07999,3.17198 1.61959,4.75757 -0.88397,1.23157 -1.76817,2.46283 -2.65265,3.69385 -1.33797,0.65947 -2.71449,1.31866 -4.07213,1.97759 -1.83959,-0.18123 -3.6974,-0.36273 -5.5465,-0.54449 -0.40157,-1.53472 -0.80339,-3.10892 -1.20547,-4.66377 0.668,-1.39312 1.33571,-2.78644 2.00318,-4.18006 z" />
          <path
             d="m 162.99416,107.32954 c 0.40931,0 0.74083,-0.33152 0.74083,-0.74083 0,-0.40931 -0.33152,-0.74083 -0.74083,-0.74083 -0.40931,0 -0.74084,0.33152 -0.74084,0.74083 0,0.40931 0.33153,0.74083 0.74084,0.74083 z m 0,0.37042 c -0.49451,0 -1.48167,0.24818 -1.48167,0.74083 v 0.37042 h 2.96333 v -0.37042 c 0,-0.49265 -0.98715,-0.74083 -1.48166,-0.74083 z"
             id="path103689-2-1-8-1-5-7-0-8-7-8-2-4-55"
             style="fill:#fcc9a6;fill-opacity:1;stroke:none;stroke-width:0.264583"
             inkscape:export-filename="/home/rmagno/dwl/samples.png"
             inkscape:export-xdpi="300.05795"
             inkscape:export-ydpi="300.05795" />
          <path
             d="m 165.84481,106.14975 c 0.40932,0 0.74083,-0.33152 0.74083,-0.74083 0,-0.40931 -0.33151,-0.74084 -0.74083,-0.74084 -0.40931,0 -0.74083,0.33153 -0.74083,0.74084 0,0.40931 0.33152,0.74083 0.74083,0.74083 z m 0,0.37042 c -0.4945,0 -1.48167,0.24818 -1.48167,0.74083 v 0.37042 h 2.96334 V 107.261 c 0,-0.49265 -0.98716,-0.74083 -1.48167,-0.74083 z"
             id="path103689-2-19-5-6-2-2-8-9-2-7-7-9-0"
             style="fill:#fa934e;fill-opacity:1;stroke:none;stroke-width:0.264583"
             inkscape:export-filename="/home/rmagno/dwl/samples.png"
             inkscape:export-xdpi="300.05795"
             inkscape:export-ydpi="300.05795" />
          <path
             d="m 168.51523,107.3919 c 0.4093,0 0.74084,-0.33152 0.74084,-0.74083 0,-0.40931 -0.33154,-0.74084 -0.74084,-0.74084 -0.4093,0 -0.74084,0.33153 -0.74084,0.74084 0,0.40931 0.33154,0.74083 0.74084,0.74083 z m 0,0.37042 c -0.4945,0 -1.48166,0.24818 -1.48166,0.74083 v 0.37042 h 2.96332 v -0.37042 c 0,-0.49265 -0.98715,-0.74083 -1.48166,-0.74083 z"
             id="path103689-2-5-5-5-1-0-5-5-1-7-1-0-1"
             style="fill:#e36006;fill-opacity:1;stroke:none;stroke-width:0.264583"
             inkscape:export-filename="/home/rmagno/dwl/samples.png"
             inkscape:export-xdpi="300.05795"
             inkscape:export-ydpi="300.05795" />
          <path
             d="m 162.87416,111.06489 c 0.40931,0 0.74083,-0.33152 0.74083,-0.74083 0,-0.40931 -0.33152,-0.74083 -0.74083,-0.74083 -0.40931,0 -0.74084,0.33152 -0.74084,0.74083 0,0.40931 0.33153,0.74083 0.74084,0.74083 z m 0,0.37042 c -0.49451,0 -1.48167,0.24818 -1.48167,0.74083 v 0.37042 h 2.96333 v -0.37042 c 0,-0.49265 -0.98715,-0.74083 -1.48166,-0.74083 z"
             id="path103689-2-1-8-1-5-7-0-8-7-8-2-4-2"
             style="fill:#fcc9a6;fill-opacity:1;stroke:none;stroke-width:0.264583"
             inkscape:export-filename="/home/rmagno/dwl/samples.png"
             inkscape:export-xdpi="300.05795"
             inkscape:export-ydpi="300.05795" />
          <path
             d="m 165.72481,109.8851 c 0.40932,0 0.74083,-0.33152 0.74083,-0.74083 0,-0.40931 -0.33151,-0.74084 -0.74083,-0.74084 -0.40931,0 -0.74083,0.33153 -0.74083,0.74084 0,0.40931 0.33152,0.74083 0.74083,0.74083 z m 0,0.37042 c -0.4945,0 -1.48167,0.24818 -1.48167,0.74083 v 0.37042 h 2.96334 v -0.37042 c 0,-0.49265 -0.98716,-0.74083 -1.48167,-0.74083 z"
             id="path103689-2-19-5-6-2-2-8-9-2-7-7-9-64"
             style="fill:#e36006;fill-opacity:1;stroke:none;stroke-width:0.264583"
             inkscape:export-filename="/home/rmagno/dwl/samples.png"
             inkscape:export-xdpi="300.05795"
             inkscape:export-ydpi="300.05795" />
        </g>
        <text
           xml:space="preserve"
           id="text30011-3-1"
           style="font-style:normal;font-weight:normal;font-size:1.41111px;line-height:1.25;font-family:sans-serif;letter-spacing:0px;word-spacing:0px;white-space:pre;shape-inside:url(#rect30013-3-6-9);fill:#4c4c4c;fill-opacity:1;stroke:none;"
           transform="translate(-64.998774,-113.90799)"><tspan
             x="218.00586"
             y="251.83053"><tspan
               style="font-style:normal;font-variant:normal;font-weight:600;font-stretch:normal;font-family:'Source Sans Pro';-inkscape-font-specification:'Source Sans Pro Semi-Bold';fill:#4c4c4c;fill-opacity:1">(e.g., MHI</tspan><tspan
               style="font-style:normal;font-variant:normal;font-weight:normal;font-stretch:normal;font-size:1.41111px;font-family:'Source Sans Pro';-inkscape-font-specification:'Source Sans Pro';fill:#4c4c4c;fill-opacity:1"> / </tspan><tspan
               style="font-style:normal;font-variant:normal;font-weight:600;font-stretch:normal;font-family:'Source Sans Pro';-inkscape-font-specification:'Source Sans Pro Semi-Bold';fill:#4c4c4c;fill-opacity:1">N=30,000)</tspan></tspan></text>
      </g>
      <g
         id="g7432">
        <g
           id="g29374"
           transform="matrix(2.5680092,0,0,2.5680092,-265.10864,-199.20355)">
          <path
             style="fill:#f8f8f7;fill-opacity:1;stroke:none;stroke-width:0.264583px;stroke-linecap:butt;stroke-linejoin:miter;stroke-opacity:1"
             d="m 115.77473,124.18605 c 1.82411,8.4e-4 3.28443,0.53482 4.15126,1.52459 0.86684,0.98977 1.14036,2.43514 0.45923,3.63541 -0.68113,1.20027 -2.31688,2.15563 -4.29566,2.57012 -1.97879,0.41448 -4.30062,0.28803 -5.60889,-0.39587 -1.30827,-0.6839 -1.60278,-1.9254 -1.58482,-3.0634 0.018,-1.13799 0.34848,-2.17234 1.60775,-2.95581 1.25927,-0.78346 3.44703,-1.31587 5.27113,-1.31504 z"
             id="path104770-7-0-6-3"
             inkscape:path-effect="#path-effect108437"
             inkscape:original-d="m 116.1383,123.65283 c 1.4605,0.53416 2.92082,1.06816 4.38095,1.60194 0.27372,1.44561 0.54725,2.89098 0.82059,4.33618 -1.63563,0.95557 -3.27137,1.91095 -4.90733,2.86615 -2.32175,-0.12626 -4.64358,-0.25272 -6.96564,-0.37937 -0.29434,-1.24136 -0.58885,-2.48286 -0.88355,-3.72455 0.33072,-1.0342 0.66124,-2.06855 0.99157,-3.10309 2.18803,-0.53225 4.37579,-1.06465 6.56341,-1.59726 z"
             inkscape:export-filename="/home/rmagno/dwl/samples.png"
             inkscape:export-xdpi="300.05795"
             inkscape:export-ydpi="300.05795" />
          <path
             d="m 111.8524,128.59157 c 0.40931,0 0.74083,-0.33152 0.74083,-0.74083 0,-0.40931 -0.33152,-0.74084 -0.74083,-0.74084 -0.40931,0 -0.74083,0.33153 -0.74083,0.74084 0,0.40931 0.33152,0.74083 0.74083,0.74083 z m 0,0.37042 c -0.49451,0 -1.48167,0.24818 -1.48167,0.74083 v 0.37042 h 2.96334 v -0.37042 c 0,-0.49265 -0.98716,-0.74083 -1.48167,-0.74083 z"
             id="path103689-2-1-0-3-4-0-1"
             style="fill:#2b94bd;fill-opacity:1;stroke:none;stroke-width:0.264583"
             inkscape:export-filename="/home/rmagno/dwl/samples.png"
             inkscape:export-xdpi="300.05795"
             inkscape:export-ydpi="300.05795" />
          <path
             d="m 114.74675,126.92287 c 0.40931,0 0.74083,-0.33152 0.74083,-0.74083 0,-0.40931 -0.33152,-0.74084 -0.74083,-0.74084 -0.40931,0 -0.74083,0.33153 -0.74083,0.74084 0,0.40931 0.33152,0.74083 0.74083,0.74083 z m 0,0.37042 c -0.49451,0 -1.48167,0.24818 -1.48167,0.74083 v 0.37042 h 2.96334 v -0.37042 c 0,-0.49265 -0.98716,-0.74083 -1.48167,-0.74083 z"
             id="path103689-2-19-61-8-1-6-3"
             style="fill:#2b94bd;fill-opacity:1;stroke:none;stroke-width:0.264583"
             inkscape:export-filename="/home/rmagno/dwl/samples.png"
             inkscape:export-xdpi="300.05795"
             inkscape:export-ydpi="300.05795" />
          <path
             d="m 118.10209,127.8553 c 0.40931,0 0.74084,-0.33152 0.74084,-0.74084 0,-0.40931 -0.33153,-0.74083 -0.74084,-0.74083 -0.4093,0 -0.74083,0.33152 -0.74083,0.74083 0,0.40932 0.33153,0.74084 0.74083,0.74084 z m 0,0.37042 c -0.4945,0 -1.48166,0.24817 -1.48166,0.74083 v 0.37042 h 2.96333 v -0.37042 c 0,-0.49266 -0.98716,-0.74083 -1.48167,-0.74083 z"
             id="path103689-2-5-3-4-4-9-0"
             style="fill:#2b94bd;fill-opacity:1;stroke:none;stroke-width:0.264583"
             inkscape:export-filename="/home/rmagno/dwl/samples.png"
             inkscape:export-xdpi="300.05795"
             inkscape:export-ydpi="300.05795" />
        </g>
        <text
           xml:space="preserve"
           id="text30011-3-1-8"
           style="font-style:normal;font-weight:normal;font-size:1.41111px;line-height:1.25;font-family:sans-serif;letter-spacing:0px;word-spacing:0px;white-space:pre;shape-inside:url(#rect30013-3-6-9-2);fill:#4c4c4c;fill-opacity:1;stroke:none;"
           transform="matrix(2.5680092,0,0,2.5680092,-548.58075,-501.42951)"><tspan
             x="218.00586"
             y="251.83053"><tspan
               style="font-style:normal;font-variant:normal;font-weight:600;font-stretch:normal;font-family:'Source Sans Pro';-inkscape-font-specification:'Source Sans Pro Semi-Bold';fill:#4c4c4c;fill-opacity:1">(e.g., PROMIS</tspan><tspan
               style="font-style:normal;font-variant:normal;font-weight:normal;font-stretch:normal;font-size:1.41111px;font-family:'Source Sans Pro';-inkscape-font-specification:'Source Sans Pro';fill:#4c4c4c;fill-opacity:1"> / </tspan><tspan
               style="font-style:normal;font-variant:normal;font-weight:600;font-stretch:normal;font-family:'Source Sans Pro';-inkscape-font-specification:'Source Sans Pro Semi-Bold';fill:#4c4c4c;fill-opacity:1">N=30,000)</tspan></tspan></text>
      </g>
      <g
         id="g55043"
         transform="matrix(2.5680092,0,0,2.5680092,-249.34366,-211.63055)">
        <g
           id="g31362"
           transform="translate(-3.3669166,3.2516582)">
          <path
             style="fill:#f8f8f7;fill-opacity:1;stroke:none;stroke-width:0.264583px;stroke-linecap:butt;stroke-linejoin:miter;stroke-opacity:1"
             d="m 137.99674,125.77356 c 1.82412,8.3e-4 3.28443,0.53481 4.15127,1.52458 0.86683,0.98977 1.14036,2.43514 0.45923,3.63541 -0.68113,1.20026 -2.31689,2.15563 -4.29567,2.57012 -1.97879,0.41448 -4.30062,0.28803 -5.60889,-0.39587 -1.30827,-0.6839 -1.60278,-1.9254 -1.58482,-3.06339 0.018,-1.138 0.34848,-2.17235 1.60775,-2.95582 1.25927,-0.78346 3.44702,-1.31587 5.27113,-1.31503 z"
             id="path104770-7-0-2-2"
             inkscape:path-effect="#path-effect108439"
             inkscape:original-d="m 138.36031,125.24033 c 1.46051,0.53416 2.92082,1.06816 4.38096,1.60194 0.27372,1.44561 0.54724,2.89098 0.82058,4.33618 -1.63562,0.95557 -3.27137,1.91095 -4.90733,2.86615 -2.32175,-0.12626 -4.64358,-0.25272 -6.96564,-0.37937 -0.29433,-1.24136 -0.58884,-2.48286 -0.88355,-3.72455 0.33072,-1.0342 0.66124,-2.06855 0.99157,-3.10309 2.18803,-0.53225 4.37578,-1.06465 6.56341,-1.59726 z"
             inkscape:export-filename="/home/rmagno/dwl/samples.png"
             inkscape:export-xdpi="300.05795"
             inkscape:export-ydpi="300.05795" />
          <path
             d="m 134.07441,130.17907 c 0.40931,0 0.74083,-0.33152 0.74083,-0.74083 0,-0.40931 -0.33152,-0.74084 -0.74083,-0.74084 -0.40931,0 -0.74083,0.33153 -0.74083,0.74084 0,0.40931 0.33152,0.74083 0.74083,0.74083 z m 0,0.37042 c -0.49451,0 -1.48167,0.24818 -1.48167,0.74083 v 0.37042 h 2.96334 v -0.37042 c 0,-0.49265 -0.98716,-0.74083 -1.48167,-0.74083 z"
             id="path103689-2-1-0-3-4-9-8"
             style="fill:#562bbd;fill-opacity:1;stroke:none;stroke-width:0.264583"
             inkscape:export-filename="/home/rmagno/dwl/samples.png"
             inkscape:export-xdpi="300.05795"
             inkscape:export-ydpi="300.05795" />
          <path
             d="m 136.96876,128.51037 c 0.40931,0 0.74084,-0.33152 0.74084,-0.74083 0,-0.40931 -0.33153,-0.74084 -0.74084,-0.74084 -0.40931,0 -0.74083,0.33153 -0.74083,0.74084 0,0.40931 0.33152,0.74083 0.74083,0.74083 z m 0,0.37042 c -0.49451,0 -1.48166,0.24818 -1.48166,0.74084 v 0.37041 h 2.96333 v -0.37041 c 0,-0.49266 -0.98716,-0.74084 -1.48167,-0.74084 z"
             id="path103689-2-19-61-8-1-0-1"
             style="fill:#562bbd;fill-opacity:1;stroke:none;stroke-width:0.264583"
             inkscape:export-filename="/home/rmagno/dwl/samples.png"
             inkscape:export-xdpi="300.05795"
             inkscape:export-ydpi="300.05795" />
          <path
             d="m 140.3241,129.4428 c 0.40931,0 0.74084,-0.33152 0.74084,-0.74084 0,-0.40931 -0.33153,-0.74083 -0.74084,-0.74083 -0.4093,0 -0.74084,0.33152 -0.74084,0.74083 0,0.40932 0.33154,0.74084 0.74084,0.74084 z m 0,0.37042 c -0.4945,0 -1.48166,0.24817 -1.48166,0.74083 v 0.37042 h 2.96333 v -0.37042 c 0,-0.49266 -0.98716,-0.74083 -1.48167,-0.74083 z"
             id="path103689-2-5-3-4-4-7-1"
             style="fill:#562bbd;fill-opacity:1;stroke:none;stroke-width:0.264583"
             inkscape:export-filename="/home/rmagno/dwl/samples.png"
             inkscape:export-xdpi="300.05795"
             inkscape:export-ydpi="300.05795" />
        </g>
        <text
           xml:space="preserve"
           id="text30011-3-1-0"
           style="font-style:normal;font-weight:normal;font-size:1.41111px;line-height:1.25;font-family:sans-serif;letter-spacing:0px;word-spacing:0px;white-space:pre;shape-inside:url(#rect30013-3-6-9-5);fill:#4c4c4c;fill-opacity:1;stroke:none;"
           transform="translate(-92.057019,-112.84966)"><tspan
             x="218.00586"
             y="251.83053"><tspan
               style="font-style:normal;font-variant:normal;font-weight:600;font-stretch:normal;font-family:'Source Sans Pro';-inkscape-font-specification:'Source Sans Pro Semi-Bold';fill:#4c4c4c;fill-opacity:1">(e.g., LOLIPOP</tspan><tspan
               style="font-style:normal;font-variant:normal;font-weight:normal;font-stretch:normal;font-size:1.41111px;font-family:'Source Sans Pro';-inkscape-font-specification:'Source Sans Pro';fill:#4c4c4c;fill-opacity:1"> / </tspan><tspan
               style="font-style:normal;font-variant:normal;font-weight:600;font-stretch:normal;font-family:'Source Sans Pro';-inkscape-font-specification:'Source Sans Pro Semi-Bold';fill:#4c4c4c;fill-opacity:1">N=30,000)</tspan></tspan></text>
      </g>
      <g
         id="g55061"
         transform="matrix(2.5680092,0,0,2.5680092,-249.34366,-211.63055)">
        <g
           id="g31270"
           transform="translate(1.0780936,0.09573417)">
          <path
             style="fill:#f8f8f7;fill-opacity:1;stroke:none;stroke-width:0.264583px;stroke-linecap:butt;stroke-linejoin:miter;stroke-opacity:1"
             d="m 173.20411,133.48692 c -0.41804,-0.53529 -1.08014,-1.22704 -1.22017,-2.05144 -0.14004,-0.8244 0.24227,-1.78127 0.91747,-2.75895 0.67521,-0.97769 1.64319,-1.97598 2.86884,-2.81793 1.22564,-0.84194 2.70874,-1.52742 4.15589,-1.95168 1.44715,-0.42426 2.85815,-0.58731 4.4934,-0.25139 1.63524,0.33593 3.49455,1.17063 5.02777,2.29374 1.53322,1.12311 2.74033,2.53441 3.29434,3.72941 0.55401,1.195 0.45515,2.17368 -0.30207,3.11411 -0.75722,0.94042 -2.18696,1.85182 -3.81681,2.59536 -1.62986,0.74354 -3.46689,1.32369 -5.44882,1.47007 -1.98192,0.14639 -4.10875,-0.14108 -5.66684,-0.55979 -1.55808,-0.41871 -2.54735,-0.96877 -3.12913,-1.43312 -0.58177,-0.46435 -0.75584,-0.8431 -1.17387,-1.37839 z"
             id="path31256"
             inkscape:path-effect="#path-effect31258"
             inkscape:original-d="m 173.44791,133.64311 c -0.66183,-0.69149 -1.32393,-1.38324 -1.98629,-2.07525 0.3826,-0.95665 0.76491,-1.91352 1.14697,-2.87068 0.9683,-0.99807 1.93628,-1.99637 2.90403,-2.99496 1.48342,-0.68524 2.96652,-1.37072 4.44938,-2.05648 1.41132,-0.16279 2.82232,-0.32584 4.23308,-0.48916 1.85965,0.835 3.71895,1.6697 5.57803,2.50415 1.20744,1.41163 2.41456,2.82293 3.62143,4.234 -0.0986,0.97898 -0.19745,1.95766 -0.29657,2.93609 -1.41255,0.9072 -2.84515,1.8141 -4.26812,2.72075 -1.83684,0.58044 -3.67387,1.16059 -5.5112,1.74048 -2.12665,-0.28721 -4.25348,-0.57468 -6.38062,-0.86242 -0.98905,-0.54982 -1.97832,-1.09988 -2.96788,-1.65021 -0.17382,-0.37852 -0.34789,-0.75727 -0.52224,-1.13631 z" />
          <path
             d="m 178.67371,128.29467 c 0.4093,0 0.74083,-0.33152 0.74083,-0.74083 0,-0.40931 -0.33153,-0.74084 -0.74083,-0.74084 -0.40931,0 -0.74084,0.33153 -0.74084,0.74084 0,0.40931 0.33153,0.74083 0.74084,0.74083 z m 0,0.37042 c -0.49451,0 -1.48167,0.24818 -1.48167,0.74083 v 0.37042 h 2.96333 v -0.37042 c 0,-0.49265 -0.98715,-0.74083 -1.48166,-0.74083 z"
             id="path103689-2-1-8-1-5-7-0-8-7-8-2-4-0"
             style="fill:#73d216;fill-opacity:1;stroke:none;stroke-width:0.264583"
             inkscape:export-filename="/home/rmagno/dwl/samples.png"
             inkscape:export-xdpi="300.05795"
             inkscape:export-ydpi="300.05795" />
          <path
             d="m 182.22016,126.36673 c 0.40931,0 0.74082,-0.33152 0.74082,-0.74083 0,-0.40932 -0.33151,-0.74084 -0.74082,-0.74084 -0.40932,0 -0.74083,0.33153 -0.74083,0.74084 0,0.40931 0.33151,0.74083 0.74083,0.74083 z m 0,0.37042 c -0.49451,0 -1.48168,0.24817 -1.48168,0.74083 v 0.37042 h 2.96335 v -0.37042 c 0,-0.49266 -0.98716,-0.74083 -1.48167,-0.74083 z"
             id="path103689-2-19-5-6-2-2-8-9-2-7-7-9-6"
             style="fill:#73d216;fill-opacity:1;stroke:none;stroke-width:0.264583"
             inkscape:export-filename="/home/rmagno/dwl/samples.png"
             inkscape:export-xdpi="300.05795"
             inkscape:export-ydpi="300.05795" />
          <path
             d="m 185.60272,127.89369 c 0.4093,0 0.74083,-0.33152 0.74083,-0.74083 0,-0.40932 -0.33153,-0.74084 -0.74083,-0.74084 -0.40931,0 -0.74084,0.33152 -0.74084,0.74084 0,0.40931 0.33153,0.74083 0.74084,0.74083 z m 0,0.37042 c -0.49451,0 -1.48167,0.24817 -1.48167,0.74083 v 0.37042 h 2.96333 v -0.37042 c 0,-0.49266 -0.98716,-0.74083 -1.48166,-0.74083 z"
             id="path103689-2-5-5-5-1-0-5-5-1-7-1-0-8"
             style="fill:#73d216;fill-opacity:1;stroke:none;stroke-width:0.264583"
             inkscape:export-filename="/home/rmagno/dwl/samples.png"
             inkscape:export-xdpi="300.05795"
             inkscape:export-ydpi="300.05795" />
          <path
             d="m 182.18278,130.01894 c 0.40931,0 0.74082,-0.33152 0.74082,-0.74083 0,-0.40932 -0.33151,-0.74084 -0.74082,-0.74084 -0.40932,0 -0.74083,0.33153 -0.74083,0.74084 0,0.40931 0.33151,0.74083 0.74083,0.74083 z m 0,0.37042 c -0.49451,0 -1.48168,0.24817 -1.48168,0.74083 v 0.37042 h 2.96335 v -0.37042 c 0,-0.49266 -0.98716,-0.74083 -1.48167,-0.74083 z"
             id="path103689-2-19-5-6-2-2-8-9-2-7-7-9-6-4"
             style="fill:#73d216;fill-opacity:1;stroke:none;stroke-width:0.264583"
             inkscape:export-filename="/home/rmagno/dwl/samples.png"
             inkscape:export-xdpi="300.05795"
             inkscape:export-ydpi="300.05795" />
          <path
             d="m 175.22158,130.30582 c 0.4093,0 0.74083,-0.33152 0.74083,-0.74083 0,-0.40931 -0.33153,-0.74084 -0.74083,-0.74084 -0.40931,0 -0.74084,0.33153 -0.74084,0.74084 0,0.40931 0.33153,0.74083 0.74084,0.74083 z m 0,0.37042 c -0.49451,0 -1.48167,0.24818 -1.48167,0.74083 v 0.37042 h 2.96333 v -0.37042 c 0,-0.49265 -0.98715,-0.74083 -1.48166,-0.74083 z"
             id="path103689-2-1-8-1-5-7-0-8-7-8-2-4-0-1"
             style="fill:#73d216;fill-opacity:1;stroke:none;stroke-width:0.264583"
             inkscape:export-filename="/home/rmagno/dwl/samples.png"
             inkscape:export-xdpi="300.05795"
             inkscape:export-ydpi="300.05795" />
          <path
             d="m 189.07231,130.02991 c 0.4093,0 0.74083,-0.33152 0.74083,-0.74083 0,-0.40931 -0.33153,-0.74084 -0.74083,-0.74084 -0.40931,0 -0.74084,0.33153 -0.74084,0.74084 0,0.40931 0.33153,0.74083 0.74084,0.74083 z m 0,0.37042 c -0.49451,0 -1.48167,0.24818 -1.48167,0.74083 v 0.37042 h 2.96333 v -0.37042 c 0,-0.49265 -0.98715,-0.74083 -1.48166,-0.74083 z"
             id="path103689-2-1-8-1-5-7-0-8-7-8-2-4-0-0"
             style="fill:#73d216;fill-opacity:1;stroke:none;stroke-width:0.264583"
             inkscape:export-filename="/home/rmagno/dwl/samples.png"
             inkscape:export-xdpi="300.05795"
             inkscape:export-ydpi="300.05795" />
          <path
             d="m 185.94874,131.63098 c 0.4093,0 0.74083,-0.33152 0.74083,-0.74083 0,-0.40931 -0.33153,-0.74084 -0.74083,-0.74084 -0.40931,0 -0.74084,0.33153 -0.74084,0.74084 0,0.40931 0.33153,0.74083 0.74084,0.74083 z m 0,0.37042 c -0.49451,0 -1.48167,0.24818 -1.48167,0.74083 v 0.37042 h 2.96333 v -0.37042 c 0,-0.49265 -0.98715,-0.74083 -1.48166,-0.74083 z"
             id="path103689-2-1-8-1-5-7-0-8-7-8-2-4-0-01"
             style="fill:#73d216;fill-opacity:1;stroke:none;stroke-width:0.264583"
             inkscape:export-filename="/home/rmagno/dwl/samples.png"
             inkscape:export-xdpi="300.05795"
             inkscape:export-ydpi="300.05795" />
          <path
             d="m 178.50387,132.00773 c 0.4093,0 0.74083,-0.33152 0.74083,-0.74083 0,-0.40931 -0.33153,-0.74084 -0.74083,-0.74084 -0.40931,0 -0.74084,0.33153 -0.74084,0.74084 0,0.40931 0.33153,0.74083 0.74084,0.74083 z m 0,0.37042 c -0.49451,0 -1.48167,0.24818 -1.48167,0.74083 v 0.37042 h 2.96333 v -0.37042 c 0,-0.49265 -0.98715,-0.74083 -1.48166,-0.74083 z"
             id="path103689-2-1-8-1-5-7-0-8-7-8-2-4-0-3"
             style="fill:#73d216;fill-opacity:1;stroke:none;stroke-width:0.264583"
             inkscape:export-filename="/home/rmagno/dwl/samples.png"
             inkscape:export-xdpi="300.05795"
             inkscape:export-ydpi="300.05795" />
          <path
             d="m 182.24861,133.73275 c 0.4093,0 0.74083,-0.33152 0.74083,-0.74083 0,-0.40931 -0.33153,-0.74084 -0.74083,-0.74084 -0.40931,0 -0.74084,0.33153 -0.74084,0.74084 0,0.40931 0.33153,0.74083 0.74084,0.74083 z m 0,0.37042 c -0.49451,0 -1.48167,0.24818 -1.48167,0.74083 v 0.37042 h 2.96333 V 134.844 c 0,-0.49265 -0.98715,-0.74083 -1.48166,-0.74083 z"
             id="path103689-2-1-8-1-5-7-0-8-7-8-2-4-0-30"
             style="fill:#73d216;fill-opacity:1;stroke:none;stroke-width:0.264583"
             inkscape:export-filename="/home/rmagno/dwl/samples.png"
             inkscape:export-xdpi="300.05795"
             inkscape:export-ydpi="300.05795" />
        </g>
        <text
           xml:space="preserve"
           id="text30011-3-1-2"
           style="font-style:normal;font-weight:normal;font-size:1.41111px;line-height:1.25;font-family:sans-serif;letter-spacing:0px;word-spacing:0px;white-space:pre;shape-inside:url(#rect30013-3-6-9-00);fill:#4c4c4c;fill-opacity:1;stroke:none;"
           transform="translate(-41.352256,-112.84966)"><tspan
             x="218.00586"
             y="251.83053"><tspan
               style="font-style:normal;font-variant:normal;font-weight:600;font-stretch:normal;font-family:'Source Sans Pro';-inkscape-font-specification:'Source Sans Pro Semi-Bold';fill:#4c4c4c;fill-opacity:1">(e.g., UKB</tspan><tspan
               style="font-style:normal;font-variant:normal;font-weight:normal;font-stretch:normal;font-size:1.41111px;font-family:'Source Sans Pro';-inkscape-font-specification:'Source Sans Pro';fill:#4c4c4c;fill-opacity:1"> / </tspan><tspan
               style="font-style:normal;font-variant:normal;font-weight:600;font-stretch:normal;font-family:'Source Sans Pro';-inkscape-font-specification:'Source Sans Pro Semi-Bold';fill:#4c4c4c;fill-opacity:1">N=500,000)</tspan></tspan></text>
      </g>
    </g>
  </g>
</svg>
