<?xml version="1.0" encoding="UTF-8" standalone="no"?>
<svg
   xmlns:dc="http://purl.org/dc/elements/1.1/"
   xmlns:cc="http://creativecommons.org/ns#"
   xmlns:rdf="http://www.w3.org/1999/02/22-rdf-syntax-ns#"
   xmlns:svg="http://www.w3.org/2000/svg"
   xmlns="http://www.w3.org/2000/svg"
   xmlns:sodipodi="http://sodipodi.sourceforge.net/DTD/sodipodi-0.dtd"
   xmlns:inkscape="http://www.inkscape.org/namespaces/inkscape"
   width="249.89256mm"
   height="71.209305mm"
   viewBox="0 0 249.89256 71.209306"
   version="1.1"
   id="svg7981"
   inkscape:version="1.0.2 (e86c870879, 2021-01-15, custom)"
   sodipodi:docname="samples.svg">
  <defs
     id="defs7975">
    <inkscape:path-effect
       effect="bspline"
       id="path-effect29242"
       is_visible="true"
       lpeversion="1"
       weight="33.333333"
       steps="2"
       helper_size="0"
       apply_no_weight="true"
       apply_with_weight="true"
       only_selected="false" />
    <rect
       x="218.00613"
       y="250.58134"
       width="25.424278"
       height="4.1658225"
       id="rect30013-3-6-9" />
    <rect
       x="218.00613"
       y="250.58134"
       width="25.424278"
       height="4.1658225"
       id="rect7086" />
    <inkscape:path-effect
       effect="bspline"
       id="path-effect108437"
       is_visible="true"
       lpeversion="1"
       weight="33.333333"
       steps="2"
       helper_size="0"
       apply_no_weight="true"
       apply_with_weight="true"
       only_selected="false" />
    <rect
       x="218.00613"
       y="250.58134"
       width="25.424278"
       height="4.1658225"
       id="rect30013-3-6-9-2" />
    <rect
       x="218.00613"
       y="250.58134"
       width="25.424278"
       height="4.1658225"
       id="rect7090" />
    <inkscape:path-effect
       effect="bspline"
       id="path-effect108439"
       is_visible="true"
       lpeversion="1"
       weight="33.333333"
       steps="2"
       helper_size="0"
       apply_no_weight="true"
       apply_with_weight="true"
       only_selected="false" />
    <rect
       x="218.00613"
       y="250.58134"
       width="25.424278"
       height="4.1658225"
       id="rect30013-3-6-9-5" />
    <rect
       x="218.00613"
       y="250.58134"
       width="25.424278"
       height="4.1658225"
       id="rect7094" />
    <inkscape:path-effect
       effect="bspline"
       id="path-effect31258"
       is_visible="true"
       lpeversion="1"
       weight="33.333333"
       steps="2"
       helper_size="0"
       apply_no_weight="true"
       apply_with_weight="true"
       only_selected="false" />
    <rect
       x="218.00613"
       y="250.58134"
       width="25.424278"
       height="4.1658225"
       id="rect30013-3-6-9-00" />
    <rect
       x="218.00613"
       y="250.58134"
       width="25.424278"
       height="4.1658225"
       id="rect7098" />
    <inkscape:path-effect
       effect="bspline"
       id="path-effect29349"
       is_visible="true"
       lpeversion="1"
       weight="33.333333"
       steps="2"
       helper_size="0"
       apply_no_weight="true"
       apply_with_weight="true"
       only_selected="false" />
    <rect
       x="218.00613"
       y="250.58134"
       width="25.424278"
       height="4.1658225"
       id="rect30013-3" />
    <rect
       x="218.00613"
       y="250.58134"
       width="25.424278"
       height="4.1658225"
       id="rect7516" />
    <inkscape:path-effect
       effect="bspline"
       id="path-effect29312"
       is_visible="true"
       lpeversion="1"
       weight="33.333333"
       steps="2"
       helper_size="0"
       apply_no_weight="true"
       apply_with_weight="true"
       only_selected="false" />
    <rect
       x="218.00613"
       y="250.58134"
       width="25.424278"
       height="4.1658225"
       id="rect30013-3-6" />
    <rect
       x="218.00613"
       y="250.58134"
       width="25.424278"
       height="4.1658225"
       id="rect7520" />
    <inkscape:path-effect
       effect="bspline"
       id="path-effect108612"
       is_visible="true"
       lpeversion="1"
       weight="33.333333"
       steps="2"
       helper_size="0"
       apply_no_weight="true"
       apply_with_weight="true"
       only_selected="false" />
    <rect
       x="218.00613"
       y="250.58134"
       width="25.424278"
       height="4.1658225"
       id="rect30013-3-6-7" />
    <rect
       x="218.00613"
       y="250.58134"
       width="25.424278"
       height="4.1658225"
       id="rect7524" />
    <inkscape:path-effect
       effect="bspline"
       id="path-effect13629"
       is_visible="true"
       lpeversion="1"
       weight="33.333333"
       steps="2"
       helper_size="0"
       apply_no_weight="true"
       apply_with_weight="true"
       only_selected="false" />
  </defs>
  <sodipodi:namedview
     id="base"
     pagecolor="#ffffff"
     bordercolor="#666666"
     borderopacity="1.0"
     inkscape:pageopacity="1"
     inkscape:pageshadow="2"
     inkscape:zoom="1.1584113"
     inkscape:cx="707.22855"
     inkscape:cy="275.97604"
     inkscape:document-units="mm"
     inkscape:current-layer="layer1"
     inkscape:document-rotation="0"
     showgrid="false"
     lock-margins="true"
     fit-margin-top="5"
     fit-margin-left="5"
     fit-margin-right="5"
     fit-margin-bottom="5"
     inkscape:window-width="2560"
     inkscape:window-height="1402"
     inkscape:window-x="1440"
     inkscape:window-y="186"
     inkscape:window-maximized="1" />
  <metadata
     id="metadata7978">
    <rdf:RDF>
      <cc:Work
         rdf:about="">
        <dc:format>image/svg+xml</dc:format>
        <dc:type
           rdf:resource="http://purl.org/dc/dcmitype/StillImage" />
        <dc:title></dc:title>
      </cc:Work>
    </rdf:RDF>
  </metadata>
  <g
     inkscape:label="Layer 1"
     inkscape:groupmode="layer"
     id="layer1"
     transform="translate(-4.0684326,-175.78065)">
    <g
       id="g9040">
      <text
         xml:space="preserve"
         style="font-style:normal;font-weight:normal;font-size:19.8481px;line-height:0.4;font-family:sans-serif;letter-spacing:0px;word-spacing:0px;fill:#4c4c4c;fill-opacity:1;stroke:none;stroke-width:0.496203"
         x="8.6090565"
         y="184.75459"
         id="text8949"><tspan
           sodipodi:role="line"
           x="8.6090565"
           y="184.75459"
           id="tspan8947"
           style="stroke-width:0.496203"><tspan
             x="8.6090565"
             y="184.75459"
             style="font-style:normal;font-variant:normal;font-weight:600;font-stretch:normal;font-size:5.53474px;line-height:0.4;font-family:'Source Sans Pro';-inkscape-font-specification:'Source Sans Pro Semi-Bold';fill:#4c4c4c;fill-opacity:1;stroke-width:0.496203"
             id="tspan8945">Possible compositions of samples:</tspan></tspan></text>
      <path
         style="fill:#f8f8f7;fill-opacity:1;stroke:none;stroke-width:0.69184px;stroke-linecap:butt;stroke-linejoin:miter;stroke-opacity:1"
         d="m 81.104403,197.25474 c 2.947796,-2.99815 7.097033,-5.35065 11.391793,-5.80397 4.294761,-0.45332 8.734274,0.99207 11.659634,3.78847 2.92537,2.7964 4.33699,6.94308 3.88657,10.62592 -0.45042,3.68285 -2.76246,6.90239 -5.67271,9.36407 -2.91026,2.46167 -6.500068,4.20503 -10.680055,4.83082 -4.179986,0.6258 -9.037622,0.14894 -11.974229,-2.09645 -2.936607,-2.24539 -3.999731,-6.35845 -3.652241,-10.21293 0.34749,-3.85447 2.093442,-7.49777 5.041238,-10.49593 z"
         id="path29240-6-3"
         inkscape:path-effect="#path-effect29349"
         inkscape:original-d="m 79.902745,196.60921 c 4.149919,-2.3518 8.299159,-4.70429 12.447693,-7.05748 4.440375,1.44616 8.879892,2.89154 13.318802,4.33626 1.41237,4.14751 2.82399,8.29419 4.23495,12.44024 -2.31143,3.22034 -4.62347,6.43988 -6.93623,9.65879 -3.498566,1.7244 -7.097933,3.44807 -10.647932,5.17106 -4.810217,-0.47388 -9.668076,-0.94847 -14.50316,-1.42375 -1.050038,-4.01303 -2.100729,-8.1293 -3.1521,-12.19497 1.746707,-3.64277 3.492656,-7.28607 5.237977,-10.93015 z" />
      <path
         d="m 85.818564,203.49778 c 1.070277,0 1.937145,-0.86687 1.937145,-1.93715 0,-1.07028 -0.866868,-1.93714 -1.937145,-1.93714 -1.070276,0 -1.937171,0.86686 -1.937171,1.93714 0,1.07028 0.866895,1.93715 1.937171,1.93715 z m 0,0.96858 c -1.29306,0 -3.874316,0.64895 -3.874316,1.93715 v 0.96858 h 7.748607 v -0.96858 c 0,-1.2882 -2.581231,-1.93715 -3.874291,-1.93715 z"
         id="path103689-2-1-8-1-5-7-0-8-7-8-2-4-55-2-3"
         style="fill:#fcc9a6;fill-opacity:1;stroke:none;stroke-width:0.69184"
         inkscape:export-filename="/home/rmagno/dwl/samples.png"
         inkscape:export-xdpi="300.05795"
         inkscape:export-ydpi="300.05795" />
      <path
         d="m 93.272532,200.41283 c 1.070303,0 1.937145,-0.86687 1.937145,-1.93715 0,-1.07028 -0.866842,-1.93717 -1.937145,-1.93717 -1.070276,0 -1.937145,0.86689 -1.937145,1.93717 0,1.07028 0.866869,1.93715 1.937145,1.93715 z m 0,0.96858 c -1.293034,0 -3.874316,0.64895 -3.874316,1.93715 v 0.96858 h 7.748633 v -0.96858 c 0,-1.2882 -2.581257,-1.93715 -3.874317,-1.93715 z"
         id="path103689-2-19-5-6-2-2-8-9-2-7-7-9-0-5-1"
         style="fill:none;fill-opacity:1;stroke:#888a85;stroke-width:0.431447;stroke-miterlimit:4;stroke-dasharray:0.862894, 0.862894;stroke-dashoffset:0"
         inkscape:export-filename="/home/rmagno/dwl/samples.png"
         inkscape:export-xdpi="300.05795"
         inkscape:export-ydpi="300.05795" />
      <path
         d="m 100.25523,203.66084 c 1.07025,0 1.93717,-0.86687 1.93717,-1.93715 0,-1.07027 -0.86692,-1.93717 -1.93717,-1.93717 -1.070252,0 -1.937173,0.8669 -1.937173,1.93717 0,1.07028 0.866921,1.93715 1.937173,1.93715 z m 0,0.96858 c -1.293035,0 -3.874292,0.64895 -3.874292,1.93715 v 0.96858 h 7.748582 v -0.96858 c 0,-1.2882 -2.58123,-1.93715 -3.87429,-1.93715 z"
         id="path103689-2-5-5-5-1-0-5-5-1-7-1-0-1-2-5"
         style="fill:none;fill-opacity:1;stroke:#888a85;stroke-width:0.431447;stroke-miterlimit:4;stroke-dasharray:0.862894, 0.862894;stroke-dashoffset:0;stroke-opacity:1"
         inkscape:export-filename="/home/rmagno/dwl/samples.png"
         inkscape:export-xdpi="300.05795"
         inkscape:export-ydpi="300.05795" />
      <path
         d="m 85.504785,213.26509 c 1.070276,0 1.937145,-0.86687 1.937145,-1.93715 0,-1.07028 -0.866869,-1.93715 -1.937145,-1.93715 -1.070277,0 -1.937172,0.86687 -1.937172,1.93715 0,1.07028 0.866895,1.93715 1.937172,1.93715 z m 0,0.96858 c -1.29306,0 -3.874317,0.64895 -3.874317,1.93715 v 0.96858 h 7.748607 v -0.96858 c 0,-1.2882 -2.58123,-1.93715 -3.87429,-1.93715 z"
         id="path103689-2-1-8-1-5-7-0-8-7-8-2-4-2-6-2"
         style="fill:#fcc9a6;fill-opacity:1;stroke:none;stroke-width:0.69184"
         inkscape:export-filename="/home/rmagno/dwl/samples.png"
         inkscape:export-xdpi="300.05795"
         inkscape:export-ydpi="300.05795" />
      <path
         d="m 92.958752,210.18013 c 1.070303,0 1.937145,-0.86687 1.937145,-1.93714 0,-1.07028 -0.866842,-1.93717 -1.937145,-1.93717 -1.070276,0 -1.937145,0.86689 -1.937145,1.93717 0,1.07027 0.866869,1.93714 1.937145,1.93714 z m 0,0.96859 c -1.293034,0 -3.874316,0.64895 -3.874316,1.93714 v 0.96859 h 7.748633 v -0.96859 c 0,-1.28819 -2.581257,-1.93714 -3.874317,-1.93714 z"
         id="path103689-2-19-5-6-2-2-8-9-2-7-7-9-64-9-6"
         style="fill:none;fill-opacity:1;stroke:#888a85;stroke-width:0.431447;stroke-miterlimit:4;stroke-dasharray:0.862894, 0.862894;stroke-dashoffset:0;stroke-opacity:1"
         inkscape:export-filename="/home/rmagno/dwl/samples.png"
         inkscape:export-xdpi="300.05795"
         inkscape:export-ydpi="300.05795" />
      <text
         xml:space="preserve"
         style="font-style:normal;font-variant:normal;font-weight:normal;font-stretch:normal;font-size:19.8481px;line-height:0.4;font-family:'Source Sans Pro';-inkscape-font-specification:'Source Sans Pro';letter-spacing:0px;word-spacing:0px;fill:#4c4c4c;fill-opacity:1;stroke:none;stroke-width:0.496203"
         x="73.662064"
         y="230.70129"
         id="text8955"><tspan
           sodipodi:role="line"
           x="73.662064"
           y="230.70129"
           id="tspan8953"
           style="font-style:normal;font-variant:normal;font-weight:normal;font-stretch:normal;font-family:'Source Sans Pro';-inkscape-font-specification:'Source Sans Pro';stroke-width:0.496203"><tspan
             x="73.662064"
             y="230.70129"
             style="font-style:normal;font-variant:normal;font-weight:normal;font-stretch:normal;font-size:5.53474px;font-family:'Source Sans Pro';-inkscape-font-specification:'Source Sans Pro';stroke-width:0.496203"
             id="tspan8951">A cohort subset.</tspan></tspan></text>
      <text
         xml:space="preserve"
         id="text30011"
         style="font-style:normal;font-weight:normal;font-size:1.41111px;line-height:1.25;font-family:sans-serif;letter-spacing:0px;word-spacing:0px;white-space:pre;shape-inside:url(#rect30013-3);fill:#4c4c4c;fill-opacity:1;stroke:none;"
         transform="matrix(2.6148309,0,0,2.6148309,-505.96231,-421.94556)"><tspan
           x="218.00586"
           y="251.83053"><tspan
             style="font-style:normal;font-variant:normal;font-weight:600;font-stretch:normal;font-family:'Source Sans Pro';-inkscape-font-specification:'Source Sans Pro Semi-Bold';fill:#4c4c4c;fill-opacity:1">(e.g., PSS000020</tspan><tspan
             style="font-style:normal;font-variant:normal;font-weight:normal;font-stretch:normal;font-size:1.41111px;font-family:'Source Sans Pro';-inkscape-font-specification:'Source Sans Pro';fill:#4c4c4c;fill-opacity:1"> / </tspan><tspan
             style="font-style:normal;font-variant:normal;font-weight:600;font-stretch:normal;font-family:'Source Sans Pro';-inkscape-font-specification:'Source Sans Pro Semi-Bold';fill:#4c4c4c;fill-opacity:1">S1</tspan><tspan
             style="font-style:normal;font-variant:normal;font-weight:normal;font-stretch:normal;font-size:1.41111px;font-family:'Source Sans Pro';-inkscape-font-specification:'Source Sans Pro';fill:#4c4c4c;fill-opacity:1"> / </tspan><tspan
             style="font-style:normal;font-variant:normal;font-weight:600;font-stretch:normal;font-family:'Source Sans Pro';-inkscape-font-specification:'Source Sans Pro Semi-Bold';fill:#4c4c4c;fill-opacity:1">MHI</tspan><tspan
             style="font-style:normal;font-variant:normal;font-weight:normal;font-stretch:normal;font-size:1.41111px;font-family:'Source Sans Pro';-inkscape-font-specification:'Source Sans Pro';fill:#4c4c4c;fill-opacity:1"> / </tspan><tspan
             style="font-style:normal;font-variant:normal;font-weight:600;font-stretch:normal;font-family:'Source Sans Pro';-inkscape-font-specification:'Source Sans Pro Semi-Bold';fill:#4c4c4c;fill-opacity:1">N=862)</tspan></tspan></text>
      <path
         style="fill:#f8f8f7;fill-opacity:1;stroke:none;stroke-width:0.69184px;stroke-linecap:butt;stroke-linejoin:miter;stroke-opacity:1"
         d="m 146.64169,197.25475 c 2.94779,-2.99816 7.09703,-5.35066 11.39179,-5.80398 4.29476,-0.45333 8.73427,0.99206 11.65963,3.78847 2.92537,2.7964 4.33699,6.94307 3.88657,10.62592 -0.45042,3.68285 -2.76245,6.90239 -5.67271,9.36407 -2.91026,2.46167 -6.50007,4.20503 -10.68005,4.83082 -4.17999,0.6258 -9.03763,0.14894 -11.97423,-2.09645 -2.93661,-2.24539 -3.99973,-6.35845 -3.65224,-10.21293 0.34749,-3.85447 2.09344,-7.49777 5.04124,-10.49592 z"
         id="path29240-6"
         inkscape:path-effect="#path-effect29312"
         inkscape:original-d="m 145.44003,196.60921 c 4.14992,-2.3518 8.29916,-4.70429 12.44769,-7.05748 4.44037,1.44616 8.87989,2.89153 13.3188,4.33625 1.41237,4.14752 2.82399,8.29419 4.23495,12.44024 -2.31143,3.22035 -4.62346,6.43989 -6.93623,9.6588 -3.49857,1.7244 -7.09793,3.44807 -10.64793,5.17106 -4.81022,-0.47389 -9.66808,-0.94848 -14.50316,-1.42375 -1.05004,-4.01303 -2.10073,-8.1293 -3.1521,-12.19497 1.74671,-3.64277 3.49265,-7.28607 5.23798,-10.93015 z" />
      <path
         d="m 165.79251,203.66083 c 1.07025,0 1.93717,-0.86686 1.93717,-1.93714 0,-1.07028 -0.86692,-1.93717 -1.93717,-1.93717 -1.07025,0 -1.93717,0.86689 -1.93717,1.93717 0,1.07028 0.86692,1.93714 1.93717,1.93714 z m 0,0.96859 c -1.29303,0 -3.87429,0.64895 -3.87429,1.93715 v 0.96858 h 7.74858 v -0.96858 c 0,-1.2882 -2.58123,-1.93715 -3.87429,-1.93715 z"
         id="path103689-2-5-5-5-1-0-5-5-1-7-1-0-1-2"
         style="fill:#e36006;fill-opacity:1;stroke:none;stroke-width:0.69184"
         inkscape:export-filename="/home/rmagno/dwl/samples.png"
         inkscape:export-xdpi="300.05795"
         inkscape:export-ydpi="300.05795" />
      <path
         d="m 158.49603,210.18013 c 1.07031,0 1.93715,-0.86687 1.93715,-1.93714 0,-1.07028 -0.86684,-1.93718 -1.93715,-1.93718 -1.07027,0 -1.93714,0.8669 -1.93714,1.93718 0,1.07027 0.86687,1.93714 1.93714,1.93714 z m 0,0.96859 c -1.29303,0 -3.87431,0.64895 -3.87431,1.93714 v 0.96859 h 7.74863 v -0.96859 c 0,-1.28819 -2.58126,-1.93714 -3.87432,-1.93714 z"
         id="path103689-2-19-5-6-2-2-8-9-2-7-7-9-64-9"
         style="fill:#e36006;fill-opacity:1;stroke:none;stroke-width:0.69184"
         inkscape:export-filename="/home/rmagno/dwl/samples.png"
         inkscape:export-xdpi="300.05795"
         inkscape:export-ydpi="300.05795" />
      <path
         d="m 151.35582,203.49654 c 1.07025,0 1.93717,-0.86686 1.93717,-1.93714 0,-1.07028 -0.86692,-1.93717 -1.93717,-1.93717 -1.07025,0 -1.93715,0.86689 -1.93715,1.93717 0,1.07028 0.8669,1.93714 1.93715,1.93714 z m 0,0.96859 c -1.29301,0 -3.87429,0.64895 -3.87429,1.93715 v 0.96858 h 7.74861 v -0.96858 c 0,-1.2882 -2.58126,-1.93715 -3.87432,-1.93715 z"
         id="path103689-2-5-5-5-1-0-5-5-1-7-1-0-1-2-5-9"
         style="fill:none;fill-opacity:1;stroke:#888a85;stroke-width:0.431447;stroke-miterlimit:4;stroke-dasharray:0.862892, 0.862892;stroke-dashoffset:0;stroke-opacity:1"
         inkscape:export-filename="/home/rmagno/dwl/samples.png"
         inkscape:export-xdpi="300.05795"
         inkscape:export-ydpi="300.05795" />
      <path
         d="m 151.04204,213.26385 c 1.07025,0 1.93717,-0.86687 1.93717,-1.93714 0,-1.07028 -0.86692,-1.93717 -1.93717,-1.93717 -1.07025,0 -1.93717,0.86689 -1.93717,1.93717 0,1.07027 0.86692,1.93714 1.93717,1.93714 z m 0,0.96859 c -1.29303,0 -3.87429,0.64895 -3.87429,1.93714 v 0.96859 h 7.74858 v -0.96859 c 0,-1.28819 -2.58123,-1.93714 -3.87429,-1.93714 z"
         id="path103689-2-5-5-5-1-0-5-5-1-7-1-0-1-2-5-4"
         style="fill:none;fill-opacity:1;stroke:#888a85;stroke-width:0.431447;stroke-miterlimit:4;stroke-dasharray:0.862892, 0.862892;stroke-dashoffset:0;stroke-opacity:1"
         inkscape:export-filename="/home/rmagno/dwl/samples.png"
         inkscape:export-xdpi="300.05795"
         inkscape:export-ydpi="300.05795" />
      <path
         d="m 158.80981,200.41157 c 1.07031,0 1.93715,-0.86687 1.93715,-1.93715 0,-1.07027 -0.86684,-1.93717 -1.93715,-1.93717 -1.07027,0 -1.93714,0.8669 -1.93714,1.93717 0,1.07028 0.86687,1.93715 1.93714,1.93715 z m 0,0.96858 c -1.29303,0 -3.87431,0.64895 -3.87431,1.93715 v 0.96858 h 7.74863 v -0.96858 c 0,-1.2882 -2.58126,-1.93715 -3.87432,-1.93715 z"
         id="path103689-2-19-5-6-2-2-8-9-2-7-7-9-0-5-1-4"
         style="fill:none;fill-opacity:1;stroke:#888a85;stroke-width:0.431447;stroke-miterlimit:4;stroke-dasharray:0.862892, 0.862892;stroke-dashoffset:0"
         inkscape:export-filename="/home/rmagno/dwl/samples.png"
         inkscape:export-xdpi="300.05795"
         inkscape:export-ydpi="300.05795" />
      <text
         xml:space="preserve"
         style="font-style:normal;font-variant:normal;font-weight:normal;font-stretch:normal;font-size:19.8481px;line-height:0.4;font-family:'Source Sans Pro';-inkscape-font-specification:'Source Sans Pro';letter-spacing:0px;word-spacing:0px;fill:#4c4c4c;fill-opacity:1;stroke:none;stroke-width:0.496203"
         x="125.83572"
         y="230.70129"
         id="text8961"><tspan
           sodipodi:role="line"
           x="125.83572"
           y="230.70129"
           id="tspan8959"
           style="font-style:normal;font-variant:normal;font-weight:normal;font-stretch:normal;font-family:'Source Sans Pro';-inkscape-font-specification:'Source Sans Pro';stroke-width:0.496203"><tspan
             x="125.83572"
             y="230.70129"
             style="font-style:normal;font-variant:normal;font-weight:normal;font-stretch:normal;font-size:5.53474px;font-family:'Source Sans Pro';-inkscape-font-specification:'Source Sans Pro';stroke-width:0.496203"
             id="tspan8957">Another but disjoint subset.</tspan></tspan></text>
      <text
         xml:space="preserve"
         id="text30011-3"
         style="font-style:normal;font-weight:normal;font-size:1.41111px;line-height:1.25;font-family:sans-serif;letter-spacing:0px;word-spacing:0px;white-space:pre;shape-inside:url(#rect30013-3-6);fill:#4c4c4c;fill-opacity:1;stroke:none;"
         transform="matrix(2.6148309,0,0,2.6148309,-441.8862,-421.94555)"><tspan
           x="218.00586"
           y="251.83053"><tspan
             style="font-style:normal;font-variant:normal;font-weight:600;font-stretch:normal;font-family:'Source Sans Pro';-inkscape-font-specification:'Source Sans Pro Semi-Bold';fill:#4c4c4c;fill-opacity:1">(e.g., PSS000020</tspan><tspan
             style="font-style:normal;font-variant:normal;font-weight:normal;font-stretch:normal;font-size:1.41111px;font-family:'Source Sans Pro';-inkscape-font-specification:'Source Sans Pro';fill:#4c4c4c;fill-opacity:1"> / </tspan><tspan
             style="font-style:normal;font-variant:normal;font-weight:600;font-stretch:normal;font-family:'Source Sans Pro';-inkscape-font-specification:'Source Sans Pro Semi-Bold';fill:#4c4c4c;fill-opacity:1">S2</tspan><tspan
             style="font-style:normal;font-variant:normal;font-weight:normal;font-stretch:normal;font-size:1.41111px;font-family:'Source Sans Pro';-inkscape-font-specification:'Source Sans Pro';fill:#4c4c4c;fill-opacity:1"> / </tspan><tspan
             style="font-style:normal;font-variant:normal;font-weight:600;font-stretch:normal;font-family:'Source Sans Pro';-inkscape-font-specification:'Source Sans Pro Semi-Bold';fill:#4c4c4c;fill-opacity:1">MHI</tspan><tspan
             style="font-style:normal;font-variant:normal;font-weight:normal;font-stretch:normal;font-size:1.41111px;font-family:'Source Sans Pro';-inkscape-font-specification:'Source Sans Pro';fill:#4c4c4c;fill-opacity:1"> / </tspan><tspan
             style="font-style:normal;font-variant:normal;font-weight:600;font-stretch:normal;font-family:'Source Sans Pro';-inkscape-font-specification:'Source Sans Pro Semi-Bold';fill:#4c4c4c;fill-opacity:1">N=2,333)</tspan></tspan></text>
      <path
         style="fill:#f8f8f7;fill-opacity:1;stroke:none;stroke-width:0.69184px;stroke-linecap:butt;stroke-linejoin:miter;stroke-opacity:1"
         d="m 36.13652,195.42409 c 4.769734,0.002 8.588234,1.39847 10.854854,3.98654 2.266621,2.58806 2.981843,6.36745 1.200802,9.50595 -1.781041,3.1385 -6.05826,5.63663 -11.232447,6.72044 -5.174186,1.0838 -11.24538,0.75315 -14.666287,-1.03512 -3.420908,-1.78828 -4.191007,-5.03459 -4.144031,-8.01026 0.04697,-2.97567 0.91122,-5.68033 4.203991,-7.72895 3.29277,-2.04863 9.013384,-3.44079 13.783118,-3.4386 z"
         id="path104770-7-0-6-2-6"
         inkscape:path-effect="#path-effect108612"
         inkscape:original-d="m 37.08718,194.0298 c 3.818981,1.39674 7.637468,2.79305 11.455461,4.18881 0.715734,3.78001 1.430956,7.5594 2.145702,11.33835 -4.276888,2.49867 -8.554088,4.99683 -12.831854,7.4945 -6.070973,-0.33015 -12.142166,-0.66081 -18.213963,-0.99198 -0.769638,-3.24594 -1.539735,-6.49225 -2.310326,-9.73905 0.864764,-2.70428 1.729015,-5.40893 2.592773,-8.11407 5.721333,-1.39175 11.441953,-2.78388 17.162207,-4.17656 z" />
      <path
         d="m 24.871652,205.07397 c 1.070279,0 1.937148,-0.86685 1.937148,-1.93714 0,-1.07027 -0.866869,-1.93717 -1.937148,-1.93717 -1.070279,0 -1.937148,0.8669 -1.937148,1.93717 0,1.07027 0.866869,1.93714 1.937148,1.93714 z m 0,0.9686 c -1.293055,0 -3.874314,0.64895 -3.874314,1.93715 v 0.96858 h 7.748628 v -0.96858 c 0,-1.2882 -2.581259,-1.93715 -3.874314,-1.93715 z"
         id="path103689-2-19-61-8-1-6-5-7-0"
         style="fill:#2b94bd;fill-opacity:1;stroke:none;stroke-width:0.69184" />
      <path
         d="m 33.193848,207.08659 c 1.070279,0 1.937166,-0.86685 1.937166,-1.93715 0,-1.07028 -0.866887,-1.93717 -1.937166,-1.93717 -1.070261,0 -1.937148,0.86689 -1.937148,1.93717 0,1.07028 0.866887,1.93715 1.937148,1.93715 z m 0,0.9686 c -1.293036,0 -3.874295,0.64892 -3.874295,1.93715 v 0.96858 h 7.748609 v -0.96858 c 0,-1.28823 -2.581259,-1.93715 -3.874314,-1.93715 z"
         id="path103689-2-5-3-4-4-9-2-1-1"
         style="fill:#2b94bd;fill-opacity:1;stroke:none;stroke-width:0.69184" />
      <path
         d="m 41.340584,203.98565 c 1.070279,0 1.937147,-0.86685 1.937147,-1.93715 0,-1.07026 -0.866868,-1.93717 -1.937147,-1.93717 -1.070279,0 -1.937148,0.86691 -1.937148,1.93717 0,1.07028 0.866869,1.93715 1.937148,1.93715 z m 0,0.9686 c -1.293055,0 -3.874314,0.64894 -3.874314,1.93715 v 0.96858 h 7.748628 v -0.96858 c 0,-1.28821 -2.58126,-1.93715 -3.874314,-1.93715 z"
         id="path103689-2-19-61-8-1-0-7-5-7"
         style="fill:#562bbd;fill-opacity:1;stroke:none;stroke-width:0.69184" />
      <text
         xml:space="preserve"
         style="font-style:normal;font-weight:normal;font-size:19.8481px;line-height:0.4;font-family:sans-serif;letter-spacing:0px;word-spacing:0px;fill:#4c4c4c;fill-opacity:1;stroke:none;stroke-width:0.496203"
         x="9.0518284"
         y="230.70129"
         id="text8943"><tspan
           sodipodi:role="line"
           x="9.0518284"
           y="230.70129"
           id="tspan8941"
           style="font-style:normal;font-variant:normal;font-weight:normal;font-stretch:normal;font-family:'Source Sans Pro';-inkscape-font-specification:'Source Sans Pro';stroke-width:0.496203"><tspan
             x="9.0518284"
             y="230.70129"
             style="font-style:normal;font-variant:normal;font-weight:normal;font-stretch:normal;font-size:5.53474px;font-family:'Source Sans Pro';-inkscape-font-specification:'Source Sans Pro';stroke-width:0.496203"
             id="tspan8939">Admixture of cohorts.</tspan></tspan></text>
      <text
         xml:space="preserve"
         id="text30011-3-4"
         style="font-style:normal;font-weight:normal;font-size:1.41111px;line-height:1.25;font-family:sans-serif;letter-spacing:0px;word-spacing:0px;white-space:pre;shape-inside:url(#rect30013-3-6-7);fill:#4c4c4c;fill-opacity:1;stroke:none;"
         transform="matrix(2.6148309,0,0,2.6148309,-560.03718,-421.94555)"><tspan
           x="218.00586"
           y="251.83053"><tspan
             style="font-style:normal;font-variant:normal;font-weight:600;font-stretch:normal;font-family:'Source Sans Pro';-inkscape-font-specification:'Source Sans Pro Semi-Bold';fill:#4c4c4c;fill-opacity:1">(e.g., PGS000011</tspan><tspan
             style="font-style:normal;font-variant:normal;font-weight:normal;font-stretch:normal;font-size:1.41111px;font-family:'Source Sans Pro';-inkscape-font-specification:'Source Sans Pro';fill:#4c4c4c;fill-opacity:1"> / </tspan><tspan
             style="font-style:normal;font-variant:normal;font-weight:600;font-stretch:normal;font-family:'Source Sans Pro';-inkscape-font-specification:'Source Sans Pro Semi-Bold';fill:#4c4c4c;fill-opacity:1">S2 /
</tspan></tspan><tspan
           x="218.00586"
           y="253.65181"><tspan
             style="font-style:normal;font-variant:normal;font-weight:600;font-stretch:normal;font-family:'Source Sans Pro';-inkscape-font-specification:'Source Sans Pro Semi-Bold';fill:#4c4c4c;fill-opacity:1">PROMIS &amp; LOLIPOP </tspan><tspan
             style="font-style:normal;font-variant:normal;font-weight:normal;font-stretch:normal;font-size:1.41111px;font-family:'Source Sans Pro';-inkscape-font-specification:'Source Sans Pro';fill:#4c4c4c;fill-opacity:1">/ </tspan><tspan
             style="font-style:normal;font-variant:normal;font-weight:600;font-stretch:normal;font-family:'Source Sans Pro';-inkscape-font-specification:'Source Sans Pro Semi-Bold';fill:#4c4c4c;fill-opacity:1">N=8,653)</tspan></tspan></text>
      <path
         style="fill:#f8f8f7;fill-opacity:1;stroke:none;stroke-width:0.69184px;stroke-linecap:butt;stroke-linejoin:miter;stroke-opacity:1"
         d="m 225.31094,187.89832 c -0.0944,0 -0.28368,0 -3.42391,0.72224 -3.14023,0.72224 -9.23089,2.16679 -12.82213,4.08138 -3.59125,1.91459 -4.68228,4.29867 -5.26749,7.60258 -0.5852,3.3039 -0.66469,7.52704 1.27991,11.55173 1.94461,4.0247 5.91361,7.85183 12.27938,9.53667 6.36577,1.68484 15.12854,1.22861 21.07113,-1.15082 5.9426,-2.37942 9.06547,-6.68202 9.79204,-10.97747 0.72657,-4.29545 -0.94356,-8.58419 -4.36223,-12.32593 -3.41868,-3.74174 -8.58613,-6.9359 -11.95304,-8.35161 -3.36691,-1.41571 -4.93278,-1.0523 -5.71598,-0.87054 -0.7832,0.18177 -0.78328,0.18177 -0.87768,0.18177 z"
         id="path13627"
         inkscape:path-effect="#path-effect13629"
         inkscape:original-d="m 225.40534,187.89832 c -0.18879,7.1e-4 -0.37808,7.1e-4 -0.56815,0 -6.0902,1.4453 -12.18085,2.88986 -18.27231,4.33372 -1.09038,2.38488 -2.18142,4.76895 -3.27317,7.15237 -0.0787,4.22403 -0.15846,8.44716 -0.23847,12.6697 3.93723,3.85946 7.93769,7.65397 11.90548,11.47994 8.76379,-0.45556 17.52656,-0.91179 26.28881,-1.36873 3.12367,-4.30208 6.24654,-8.60468 9.36878,-12.90804 -1.66952,-4.28824 -3.33964,-8.57698 -5.01049,-12.86653 -5.16698,-3.1936 -10.33444,-6.38775 -15.50268,-9.58268 -1.56526,0.36412 -3.13113,0.72752 -4.69772,1.09025 z" />
      <path
         d="m 213.00888,200.89474 c 1.07025,0 1.93714,-0.86687 1.93714,-1.93715 0,-1.07027 -0.86689,-1.93717 -1.93714,-1.93717 -1.07028,0 -1.93717,0.8669 -1.93717,1.93717 0,1.07028 0.86689,1.93715 1.93717,1.93715 z m 0,0.96858 c -1.29306,0 -3.87432,0.64895 -3.87432,1.93715 v 0.96858 h 7.74861 v -0.96858 c 0,-1.2882 -2.58123,-1.93715 -3.87429,-1.93715 z"
         id="path103689-2-1-8-1-5-7-0-8-7-8-2-4-0-4"
         style="fill:#babdb6;fill-opacity:1;stroke:none;stroke-width:0.69184"
         inkscape:export-filename="/home/rmagno/dwl/samples.png"
         inkscape:export-xdpi="300.05795"
         inkscape:export-ydpi="300.05795" />
      <path
         d="m 222.28224,195.8535 c 1.07028,0 1.93712,-0.86687 1.93712,-1.93715 0,-1.0703 -0.86684,-1.93717 -1.93712,-1.93717 -1.0703,0 -1.93714,0.8669 -1.93714,1.93717 0,1.07028 0.86684,1.93715 1.93714,1.93715 z m 0,0.96859 c -1.29306,0 -3.87434,0.64892 -3.87434,1.93714 v 0.96859 h 7.74866 v -0.96859 c 0,-1.28822 -2.58126,-1.93714 -3.87432,-1.93714 z"
         id="path103689-2-19-5-6-2-2-8-9-2-7-7-9-6-7"
         style="fill:#babdb6;fill-opacity:1;stroke:none;stroke-width:0.69184"
         inkscape:export-filename="/home/rmagno/dwl/samples.png"
         inkscape:export-xdpi="300.05795"
         inkscape:export-ydpi="300.05795" />
      <path
         d="m 240.19946,205.4321 c 1.07025,0 1.93714,-0.86687 1.93714,-1.93715 0,-1.07028 -0.86689,-1.93717 -1.93714,-1.93717 -1.07028,0 -1.93717,0.86689 -1.93717,1.93717 0,1.07028 0.86689,1.93715 1.93717,1.93715 z m 0,0.96858 c -1.29306,0 -3.87432,0.64895 -3.87432,1.93715 v 0.96858 h 7.74861 v -0.96858 c 0,-1.2882 -2.58123,-1.93715 -3.87429,-1.93715 z"
         id="path103689-2-1-8-1-5-7-0-8-7-8-2-4-0-0-0"
         style="fill:#babdb6;fill-opacity:1;stroke:none;stroke-width:0.69184"
         inkscape:export-filename="/home/rmagno/dwl/samples.png"
         inkscape:export-xdpi="300.05795"
         inkscape:export-ydpi="300.05795" />
      <path
         d="m 232.03185,209.61862 c 1.07025,0 1.93715,-0.86687 1.93715,-1.93714 0,-1.07028 -0.8669,-1.93717 -1.93715,-1.93717 -1.07028,0 -1.93717,0.86689 -1.93717,1.93717 0,1.07027 0.86689,1.93714 1.93717,1.93714 z m 0,0.96859 c -1.29306,0 -3.87432,0.64895 -3.87432,1.93714 v 0.96859 h 7.74861 v -0.96859 c 0,-1.28819 -2.58123,-1.93714 -3.87429,-1.93714 z"
         id="path103689-2-1-8-1-5-7-0-8-7-8-2-4-0-01-6"
         style="fill:#babdb6;fill-opacity:1;stroke:none;stroke-width:0.69184"
         inkscape:export-filename="/home/rmagno/dwl/samples.png"
         inkscape:export-xdpi="300.05795"
         inkscape:export-ydpi="300.05795" />
      <path
         d="m 212.56477,210.60376 c 1.07025,0 1.93715,-0.86687 1.93715,-1.93714 0,-1.07028 -0.8669,-1.93718 -1.93715,-1.93718 -1.07027,0 -1.93717,0.8669 -1.93717,1.93718 0,1.07027 0.8669,1.93714 1.93717,1.93714 z m 0,0.96859 c -1.29306,0 -3.87431,0.64895 -3.87431,1.93714 v 0.96859 h 7.7486 v -0.96859 c 0,-1.28819 -2.58123,-1.93714 -3.87429,-1.93714 z"
         id="path103689-2-1-8-1-5-7-0-8-7-8-2-4-0-3-4"
         style="fill:#babdb6;fill-opacity:1;stroke:none;stroke-width:0.69184"
         inkscape:export-filename="/home/rmagno/dwl/samples.png"
         inkscape:export-xdpi="300.05795"
         inkscape:export-ydpi="300.05795" />
      <path
         d="m 222.35664,215.1144 c 1.07025,0 1.93714,-0.86687 1.93714,-1.93715 0,-1.07028 -0.86689,-1.93717 -1.93714,-1.93717 -1.07028,0 -1.93718,0.86689 -1.93718,1.93717 0,1.07028 0.8669,1.93715 1.93718,1.93715 z m 0,0.96858 c -1.29306,0 -3.87432,0.64895 -3.87432,1.93715 v 0.96858 h 7.74861 v -0.96858 c 0,-1.2882 -2.58123,-1.93715 -3.87429,-1.93715 z"
         id="path103689-2-1-8-1-5-7-0-8-7-8-2-4-0-30-3"
         style="fill:#babdb6;fill-opacity:1;stroke:none;stroke-width:0.69184"
         inkscape:export-filename="/home/rmagno/dwl/samples.png"
         inkscape:export-xdpi="300.05795"
         inkscape:export-ydpi="300.05795" />
      <text
         xml:space="preserve"
         style="font-style:normal;font-variant:normal;font-weight:normal;font-stretch:normal;font-size:19.8481px;line-height:0;font-family:'Source Sans Pro';-inkscape-font-specification:'Source Sans Pro';letter-spacing:0px;word-spacing:0px;fill:#4c4c4c;fill-opacity:1;stroke:none;stroke-width:0.496203"
         x="203.51537"
         y="230.70129"
         id="text8971"><tspan
           sodipodi:role="line"
           x="203.51537"
           y="230.70129"
           id="tspan8965"
           style="font-style:normal;font-variant:normal;font-weight:normal;font-stretch:normal;line-height:0.3;font-family:'Source Sans Pro';-inkscape-font-specification:'Source Sans Pro';stroke-width:0.496203"><tspan
             x="203.51537"
             y="230.70129"
             style="font-style:normal;font-variant:normal;font-weight:normal;font-stretch:normal;font-size:5.53474px;line-height:0.3;font-family:'Source Sans Pro';-inkscape-font-specification:'Source Sans Pro';stroke-width:0.496203"
             id="tspan8963">Not associated with </tspan></tspan><tspan
           sodipodi:role="line"
           x="203.51537"
           y="238.4519"
           id="tspan8969"
           style="font-style:normal;font-variant:normal;font-weight:normal;font-stretch:normal;line-height:0.3;font-family:'Source Sans Pro';-inkscape-font-specification:'Source Sans Pro';stroke-width:0.496203"><tspan
             x="203.51537"
             y="238.4519"
             style="font-style:normal;font-variant:normal;font-weight:normal;font-stretch:normal;font-size:5.53474px;line-height:0.3;font-family:'Source Sans Pro';-inkscape-font-specification:'Source Sans Pro';stroke-width:0.496203"
             id="tspan8967">any cohort.</tspan></tspan></text>
    </g>
  </g>
</svg>
